<?xml version="1.0" standalone="no"?><!DOCTYPE svg PUBLIC "-//W3C//DTD SVG 1.1//EN" "http://www.w3.org/Graphics/SVG/1.1/DTD/svg11.dtd"><svg t="1528796432513" class="icon" style="" viewBox="0 0 1024 1024" version="1.1" xmlns="http://www.w3.org/2000/svg" p-id="7692" xmlns:xlink="http://www.w3.org/1999/xlink" width="200" height="200"><defs><style type="text/css"></style></defs><path d="M804.571429 329.142857q0 126.285714-84.285714 219.714286t-208.285714 107.142857l0 349.714286q0 8-5.142857 13.142857t-13.142857 5.142857l-36.571429 0q-8 0-13.142857-5.142857t-5.142857-13.142857l0-349.714286q-124-13.714286-208.285714-107.142857t-84.285714-219.714286q0-66.857143 26-127.714286t70.285714-105.142857 105.142857-70.285714 127.714286-26 127.714286 26 105.142857 70.285714 70.285714 105.142857 26 127.714286zm-329.142857 256q105.714286 0 180.857143-75.142857t75.142857-180.857143-75.142857-180.857143-180.857143-75.142857-180.857143 75.142857-75.142857 180.857143 75.142857 180.857143 180.857143 75.142857z" p-id="7693" fill="#2d8cf0"></path></svg>