<?xml version="1.0" standalone="no"?><!DOCTYPE svg PUBLIC "-//W3C//DTD SVG 1.1//EN" "http://www.w3.org/Graphics/SVG/1.1/DTD/svg11.dtd"><svg t="1528796553593" class="icon" style="" viewBox="0 0 1024 1024" version="1.1" xmlns="http://www.w3.org/2000/svg" p-id="7859" xmlns:xlink="http://www.w3.org/1999/xlink" width="200" height="200"><defs><style type="text/css"></style></defs><path d="M877.714286 877.714286q0 36-35.142857 64.857143t-93.714286 46.285714-128.571429 26.285714-144.857143 8.857143-144.857143-8.857143-128.571429-26.285714-93.714286-46.285714-35.142857-64.857143q0-28 18.857143-50.571429t52-38 67.428571-25.428571 74.857143-16.857143q14.857143-2.857143 27.428571 6t14.857143 23.714286q2.857143 14.857143-6 27.428571t-23.714286 14.857143q-33.142857 5.714286-60.571429 13.428571t-43.714286 14.571429-27.714286 13.428571-15.714286 11.142857-4.857143 6.857143q1.714286 6.285714 15.428571 15.142857t41.714286 18.857143 65.142857 18.571429 91.714286 14.285714 115.142857 5.714286 115.142857-5.714286 91.714286-14.285714 65.142857-18.857143 41.714286-19.142857 15.428571-15.714286q-0.571429-2.285714-4.857143-6.285714t-15.714286-10.857143-27.714286-13.428571-43.714286-14.285714-60.571429-13.428571q-14.857143-2.285714-23.714286-14.857143t-6-27.428571q2.285714-14.857143 14.857143-23.714286t27.428571-6q40.571429 6.857143 74.857143 16.857143t67.428571 25.428571 52 38 18.857143 50.571429zm-219.428571-512l0 219.428571q0 14.857143-10.857143 25.714286t-25.714286 10.857143l-36.571429 0 0 219.428571q0 14.857143-10.857143 25.714286t-25.714286 10.857143l-146.285714 0q-14.857143 0-25.714286-10.857143t-10.857143-25.714286l0-219.428571-36.571429 0q-14.857143 0-25.714286-10.857143t-10.857143-25.714286l0-219.428571q0-30.285714 21.428571-51.714286t51.714286-21.428571l219.428571 0q30.285714 0 51.714286 21.428571t21.428571 51.714286zm-54.857143-219.428571q0 53.142857-37.428571 90.571429t-90.571429 37.428571-90.571429-37.428571-37.428571-90.571429 37.428571-90.571429 90.571429-37.428571 90.571429 37.428571 37.428571 90.571429z" p-id="7860" fill="#ff9900"></path></svg>